<svg id="visual" viewBox="0 0 960 540" width="960" height="540" xmlns="http://www.w3.org/2000/svg" xmlns:xlink="http://www.w3.org/1999/xlink" version="1.1"><rect width="960" height="540" fill="#0b0627"></rect><g><g transform="translate(31 322)"><path d="M0 -23.7L23.7 0L0 23.7L-23.7 0Z" fill="#6a59d1"></path></g><g transform="translate(379 500)"><path d="M0 -19L19 0L0 19L-19 0Z" fill="#6a59d1"></path></g><g transform="translate(91 353)"><path d="M0 -11L11 0L0 11L-11 0Z" fill="#6a59d1"></path></g><g transform="translate(574 188)"><path d="M0 -17L17 0L0 17L-17 0Z" fill="#6a59d1"></path></g><g transform="translate(206 292)"><path d="M0 -20L20 0L0 20L-20 0Z" fill="#6a59d1"></path></g><g transform="translate(618 112)"><path d="M0 -22L22 0L0 22L-22 0Z" fill="#6a59d1"></path></g><g transform="translate(317 231)"><path d="M0 -2L2 0L0 2L-2 0Z" fill="#6a59d1"></path></g><g transform="translate(542 450)"><path d="M0 -2L2 0L0 2L-2 0Z" fill="#6a59d1"></path></g><g transform="translate(433 383)"><path d="M0 -2L2 0L0 2L-2 0Z" fill="#6a59d1"></path></g><g transform="translate(732 474)"><path d="M0 -12L12 0L0 12L-12 0Z" fill="#6a59d1"></path></g><g transform="translate(864 179)"><path d="M0 -19L19 0L0 19L-19 0Z" fill="#6a59d1"></path></g><g transform="translate(126 243)"><path d="M0 -10L10 0L0 10L-10 0Z" fill="#6a59d1"></path></g><g transform="translate(433 142)"><path d="M0 -10L10 0L0 10L-10 0Z" fill="#6a59d1"></path></g><g transform="translate(51 491)"><path d="M0 -15L15 0L0 15L-15 0Z" fill="#6a59d1"></path></g><g transform="translate(921 77)"><path d="M0 -12L12 0L0 12L-12 0Z" fill="#6a59d1"></path></g><g transform="translate(447 1)"><path d="M0 -13L13 0L0 13L-13 0Z" fill="#6a59d1"></path></g><g transform="translate(694 239)"><path d="M0 -17L17 0L0 17L-17 0Z" fill="#6a59d1"></path></g><g transform="translate(780 379)"><path d="M0 -17L17 0L0 17L-17 0Z" fill="#6a59d1"></path></g><g transform="translate(853 22)"><path d="M0 -16L16 0L0 16L-16 0Z" fill="#6a59d1"></path></g><g transform="translate(487 231)"><path d="M0 -11L11 0L0 11L-11 0Z" fill="#6a59d1"></path></g><g transform="translate(54 221)"><path d="M0 -6L6 0L0 6L-6 0Z" fill="#6a59d1"></path></g><g transform="translate(682 84)"><path d="M0 -6L6 0L0 6L-6 0Z" fill="#6a59d1"></path></g><g transform="translate(833 330)"><path d="M0 -16L16 0L0 16L-16 0Z" fill="#6a59d1"></path></g><g transform="translate(562 511)"><path d="M0 -7L7 0L0 7L-7 0Z" fill="#6a59d1"></path></g><g transform="translate(653 507)"><path d="M0 -17L17 0L0 17L-17 0Z" fill="#6a59d1"></path></g><g transform="translate(780 507)"><path d="M0 -13L13 0L0 13L-13 0Z" fill="#6a59d1"></path></g><g transform="translate(588 273)"><path d="M0 -15L15 0L0 15L-15 0Z" fill="#6a59d1"></path></g><g transform="translate(764 330)"><path d="M0 -2L2 0L0 2L-2 0Z" fill="#6a59d1"></path></g><g transform="translate(935 449)"><path d="M0 -18L18 0L0 18L-18 0Z" fill="#6a59d1"></path></g><g transform="translate(380 255)"><path d="M0 -20L20 0L0 20L-20 0Z" fill="#6a59d1"></path></g><g transform="translate(915 523)"><path d="M0 -4L4 0L0 4L-4 0Z" fill="#6a59d1"></path></g><g transform="translate(934 332)"><path d="M0 -10L10 0L0 10L-10 0Z" fill="#6a59d1"></path></g><g transform="translate(157 482)"><path d="M0 -5L5 0L0 5L-5 0Z" fill="#6a59d1"></path></g><g transform="translate(53 137)"><path d="M0 -4L4 0L0 4L-4 0Z" fill="#6a59d1"></path></g><g transform="translate(890 413)"><path d="M0 -2L2 0L0 2L-2 0Z" fill="#6a59d1"></path></g><g transform="translate(296 361)"><path d="M0 -13L13 0L0 13L-13 0Z" fill="#6a59d1"></path></g><g transform="translate(552 323)"><path d="M0 -15L15 0L0 15L-15 0Z" fill="#6a59d1"></path></g><g transform="translate(553 27)"><path d="M0 -15L15 0L0 15L-15 0Z" fill="#6a59d1"></path></g><g transform="translate(742 38)"><path d="M0 -2L2 0L0 2L-2 0Z" fill="#6a59d1"></path></g><g transform="translate(944 204)"><path d="M0 -18L18 0L0 18L-18 0Z" fill="#6a59d1"></path></g><g transform="translate(134 318)"><path d="M0 -8L8 0L0 8L-8 0Z" fill="#6a59d1"></path></g><g transform="translate(497 66)"><path d="M0 -10L10 0L0 10L-10 0Z" fill="#6a59d1"></path></g><g transform="translate(635 361)"><path d="M0 -6L6 0L0 6L-6 0Z" fill="#6a59d1"></path></g><g transform="translate(257 284)"><path d="M0 -14L14 0L0 14L-14 0Z" fill="#6a59d1"></path></g><g transform="translate(155 46)"><path d="M0 -20L20 0L0 20L-20 0Z" fill="#6a59d1"></path></g><g transform="translate(825 100)"><path d="M0 -3L3 0L0 3L-3 0Z" fill="#6a59d1"></path></g><g transform="translate(148 430)"><path d="M0 -11L11 0L0 11L-11 0Z" fill="#6a59d1"></path></g><g transform="translate(224 521)"><path d="M0 -3L3 0L0 3L-3 0Z" fill="#6a59d1"></path></g><g transform="translate(354 417)"><path d="M0 -19L19 0L0 19L-19 0Z" fill="#6a59d1"></path></g><g transform="translate(245 472)"><path d="M0 -21L21 0L0 21L-21 0Z" fill="#6a59d1"></path></g><g transform="translate(697 537)"><path d="M0 -21L21 0L0 21L-21 0Z" fill="#6a59d1"></path></g><g transform="translate(279 58)"><path d="M0 -15L15 0L0 15L-15 0Z" fill="#6a59d1"></path></g><g transform="translate(791 170)"><path d="M0 -16L16 0L0 16L-16 0Z" fill="#6a59d1"></path></g><g transform="translate(82 263)"><path d="M0 -2L2 0L0 2L-2 0Z" fill="#6a59d1"></path></g><g transform="translate(13 262)"><path d="M0 -14L14 0L0 14L-14 0Z" fill="#6a59d1"></path></g><g transform="translate(878 280)"><path d="M0 -19L19 0L0 19L-19 0Z" fill="#6a59d1"></path></g><g transform="translate(43 66)"><path d="M0 -13L13 0L0 13L-13 0Z" fill="#6a59d1"></path></g><g transform="translate(837 465)"><path d="M0 -12L12 0L0 12L-12 0Z" fill="#6a59d1"></path></g><g transform="translate(60 8)"><path d="M0 -17L17 0L0 17L-17 0Z" fill="#6a59d1"></path></g><g transform="translate(589 384)"><path d="M0 -13L13 0L0 13L-13 0Z" fill="#6a59d1"></path></g><g transform="translate(79 97)"><path d="M0 -12L12 0L0 12L-12 0Z" fill="#6a59d1"></path></g><g transform="translate(408 68)"><path d="M0 -15L15 0L0 15L-15 0Z" fill="#6a59d1"></path></g><g transform="translate(648 251)"><path d="M0 -11L11 0L0 11L-11 0Z" fill="#6a59d1"></path></g><g transform="translate(691 148)"><path d="M0 -14L14 0L0 14L-14 0Z" fill="#6a59d1"></path></g><g transform="translate(939 157)"><path d="M0 -14L14 0L0 14L-14 0Z" fill="#6a59d1"></path></g><g transform="translate(923 379)"><path d="M0 -8L8 0L0 8L-8 0Z" fill="#6a59d1"></path></g><g transform="translate(194 443)"><path d="M0 -8L8 0L0 8L-8 0Z" fill="#6a59d1"></path></g><g transform="translate(916 6)"><path d="M0 -22L22 0L0 22L-22 0Z" fill="#6a59d1"></path></g><g transform="translate(536 252)"><path d="M0 -18L18 0L0 18L-18 0Z" fill="#6a59d1"></path></g><g transform="translate(495 300)"><path d="M0 -2L2 0L0 2L-2 0Z" fill="#6a59d1"></path></g><g transform="translate(141 198)"><path d="M0 -12L12 0L0 12L-12 0Z" fill="#6a59d1"></path></g><g transform="translate(353 136)"><path d="M0 -6L6 0L0 6L-6 0Z" fill="#6a59d1"></path></g><g transform="translate(416 538)"><path d="M0 -18L18 0L0 18L-18 0Z" fill="#6a59d1"></path></g><g transform="translate(218 136)"><path d="M0 -15L15 0L0 15L-15 0Z" fill="#6a59d1"></path></g><g transform="translate(325 3)"><path d="M0 -2L2 0L0 2L-2 0Z" fill="#6a59d1"></path></g><g transform="translate(237 393)"><path d="M0 -3L3 0L0 3L-3 0Z" fill="#6a59d1"></path></g><g transform="translate(870 73)"><path d="M0 -13L13 0L0 13L-13 0Z" fill="#6a59d1"></path></g><g transform="translate(412 465)"><path d="M0 -2L2 0L0 2L-2 0Z" fill="#6a59d1"></path></g><g transform="translate(579 82)"><path d="M0 -9L9 0L0 9L-9 0Z" fill="#6a59d1"></path></g><g transform="translate(689 345)"><path d="M0 -21L21 0L0 21L-21 0Z" fill="#6a59d1"></path></g><g transform="translate(619 444)"><path d="M0 -11L11 0L0 11L-11 0Z" fill="#6a59d1"></path></g><g transform="translate(491 424)"><path d="M0 -4L4 0L0 4L-4 0Z" fill="#6a59d1"></path></g><g transform="translate(327 483)"><path d="M0 -6L6 0L0 6L-6 0Z" fill="#6a59d1"></path></g><g transform="translate(459 187)"><path d="M0 -16L16 0L0 16L-16 0Z" fill="#6a59d1"></path></g><g transform="translate(168 536)"><path d="M0 -16L16 0L0 16L-16 0Z" fill="#6a59d1"></path></g><g transform="translate(499 129)"><path d="M0 -19L19 0L0 19L-19 0Z" fill="#6a59d1"></path></g><g transform="translate(114 157)"><path d="M0 -20L20 0L0 20L-20 0Z" fill="#6a59d1"></path></g><g transform="translate(550 130)"><path d="M0 -15L15 0L0 15L-15 0Z" fill="#6a59d1"></path></g><g transform="translate(495 502)"><path d="M0 -16L16 0L0 16L-16 0Z" fill="#6a59d1"></path></g><g transform="translate(376 189)"><path d="M0 -14L14 0L0 14L-14 0Z" fill="#6a59d1"></path></g><g transform="translate(728 412)"><path d="M0 -14L14 0L0 14L-14 0Z" fill="#6a59d1"></path></g><g transform="translate(680 433)"><path d="M0 -6L6 0L0 6L-6 0Z" fill="#6a59d1"></path></g><g transform="translate(779 112)"><path d="M0 -10L10 0L0 10L-10 0Z" fill="#6a59d1"></path></g><g transform="translate(221 204)"><path d="M0 -10L10 0L0 10L-10 0Z" fill="#6a59d1"></path></g><g transform="translate(289 432)"><path d="M0 -12L12 0L0 12L-12 0Z" fill="#6a59d1"></path></g><g transform="translate(131 105)"><path d="M0 -8L8 0L0 8L-8 0Z" fill="#6a59d1"></path></g><g transform="translate(934 258)"><path d="M0 -7L7 0L0 7L-7 0Z" fill="#6a59d1"></path></g><g transform="translate(515 354)"><path d="M0 -19L19 0L0 19L-19 0Z" fill="#6a59d1"></path></g><g transform="translate(238 334)"><path d="M0 -8L8 0L0 8L-8 0Z" fill="#6a59d1"></path></g><g transform="translate(234 5)"><path d="M0 -12L12 0L0 12L-12 0Z" fill="#6a59d1"></path></g><g transform="translate(19 397)"><path d="M0 -4L4 0L0 4L-4 0Z" fill="#6a59d1"></path></g><g transform="translate(844 235)"><path d="M0 -19L19 0L0 19L-19 0Z" fill="#6a59d1"></path></g><g transform="translate(281 169)"><path d="M0 -18L18 0L0 18L-18 0Z" fill="#6a59d1"></path></g><g transform="translate(348 320)"><path d="M0 -3L3 0L0 3L-3 0Z" fill="#6a59d1"></path></g><g transform="translate(750 283)"><path d="M0 -14L14 0L0 14L-14 0Z" fill="#6a59d1"></path></g><g transform="translate(375 20)"><path d="M0 -4L4 0L0 4L-4 0Z" fill="#6a59d1"></path></g><g transform="translate(300 307)"><path d="M0 -20L20 0L0 20L-20 0Z" fill="#6a59d1"></path></g><g transform="translate(785 7)"><path d="M0 -12L12 0L0 12L-12 0Z" fill="#6a59d1"></path></g><g transform="translate(833 388)"><path d="M0 -7L7 0L0 7L-7 0Z" fill="#6a59d1"></path></g><g transform="translate(736 173)"><path d="M0 -5L5 0L0 5L-5 0Z" fill="#6a59d1"></path></g><g transform="translate(442 316)"><path d="M0 -13L13 0L0 13L-13 0Z" fill="#6a59d1"></path></g><g transform="translate(439 266)"><path d="M0 -17L17 0L0 17L-17 0Z" fill="#6a59d1"></path></g><g transform="translate(4 179)"><path d="M0 -15L15 0L0 15L-15 0Z" fill="#6a59d1"></path></g><g transform="translate(668 300)"><path d="M0 -20L20 0L0 20L-20 0Z" fill="#6a59d1"></path></g><g transform="translate(252 99)"><path d="M0 -22L22 0L0 22L-22 0Z" fill="#6a59d1"></path></g><g transform="translate(188 241)"><path d="M0 -5L5 0L0 5L-5 0Z" fill="#6a59d1"></path></g><g transform="translate(647 24)"><path d="M0 -21L21 0L0 21L-21 0Z" fill="#6a59d1"></path></g><g transform="translate(105 472)"><path d="M0 -2L2 0L0 2L-2 0Z" fill="#6a59d1"></path></g><g transform="translate(889 118)"><path d="M0 -17L17 0L0 17L-17 0Z" fill="#6a59d1"></path></g><g transform="translate(629 167)"><path d="M0 -19L19 0L0 19L-19 0Z" fill="#6a59d1"></path></g><g transform="translate(776 241)"><path d="M0 -14L14 0L0 14L-14 0Z" fill="#6a59d1"></path></g><g transform="translate(327 538)"><path d="M0 -21L21 0L0 21L-21 0Z" fill="#6a59d1"></path></g><g transform="translate(701 8)"><path d="M0 -17L17 0L0 17L-17 0Z" fill="#6a59d1"></path></g><g transform="translate(864 520)"><path d="M0 -10L10 0L0 10L-10 0Z" fill="#6a59d1"></path></g><g transform="translate(73 399)"><path d="M0 -17L17 0L0 17L-17 0Z" fill="#6a59d1"></path></g><g transform="translate(7 535)"><path d="M0 -4L4 0L0 4L-4 0Z" fill="#6a59d1"></path></g><g transform="translate(275 528)"><path d="M0 -15L15 0L0 15L-15 0Z" fill="#6a59d1"></path></g><g transform="translate(5 460)"><path d="M0 -12L12 0L0 12L-12 0Z" fill="#6a59d1"></path></g><g transform="translate(170 134)"><path d="M0 -15L15 0L0 15L-15 0Z" fill="#6a59d1"></path></g><g transform="translate(180 355)"><path d="M0 -11L11 0L0 11L-11 0Z" fill="#6a59d1"></path></g><g transform="translate(347 61)"><path d="M0 -4L4 0L0 4L-4 0Z" fill="#6a59d1"></path></g><g transform="translate(12 1)"><path d="M0 -17L17 0L0 17L-17 0Z" fill="#6a59d1"></path></g><g transform="translate(264 231)"><path d="M0 -16L16 0L0 16L-16 0Z" fill="#6a59d1"></path></g><g transform="translate(387 358)"><path d="M0 -11L11 0L0 11L-11 0Z" fill="#6a59d1"></path></g><g transform="translate(495 11)"><path d="M0 -14L14 0L0 14L-14 0Z" fill="#6a59d1"></path></g><g transform="translate(788 447)"><path d="M0 -10L10 0L0 10L-10 0Z" fill="#6a59d1"></path></g><g transform="translate(524 185)"><path d="M0 -5L5 0L0 5L-5 0Z" fill="#6a59d1"></path></g><g transform="translate(312 94)"><path d="M0 -20L20 0L0 20L-20 0Z" fill="#6a59d1"></path></g><g transform="translate(95 539)"><path d="M0 -21L21 0L0 21L-21 0Z" fill="#6a59d1"></path></g><g transform="translate(126 386)"><path d="M0 -2L2 0L0 2L-2 0Z" fill="#6a59d1"></path></g><g transform="translate(222 59)"><path d="M0 -4L4 0L0 4L-4 0Z" fill="#6a59d1"></path></g><g transform="translate(13 109)"><path d="M0 -19L19 0L0 19L-19 0Z" fill="#6a59d1"></path></g><g transform="translate(539 399)"><path d="M0 -12L12 0L0 12L-12 0Z" fill="#6a59d1"></path></g><g transform="translate(446 498)"><path d="M0 -13L13 0L0 13L-13 0Z" fill="#6a59d1"></path></g><g transform="translate(958 39)"><path d="M0 -9L9 0L0 9L-9 0Z" fill="#6a59d1"></path></g><g transform="translate(897 214)"><path d="M0 -19L19 0L0 19L-19 0Z" fill="#6a59d1"></path></g><g transform="translate(894 477)"><path d="M0 -18L18 0L0 18L-18 0Z" fill="#6a59d1"></path></g><g transform="translate(959 504)"><path d="M0 -8L8 0L0 8L-8 0Z" fill="#6a59d1"></path></g><g transform="translate(878 356)"><path d="M0 -14L14 0L0 14L-14 0Z" fill="#6a59d1"></path></g><g transform="translate(99 41)"><path d="M0 -20L20 0L0 20L-20 0Z" fill="#6a59d1"></path></g><g transform="translate(816 53)"><path d="M0 -9L9 0L0 9L-9 0Z" fill="#6a59d1"></path></g><g transform="translate(598 12)"><path d="M0 -11L11 0L0 11L-11 0Z" fill="#6a59d1"></path></g><g transform="translate(603 323)"><path d="M0 -20L20 0L0 20L-20 0Z" fill="#6a59d1"></path></g><g transform="translate(734 93)"><path d="M0 -15L15 0L0 15L-15 0Z" fill="#6a59d1"></path></g><g transform="translate(798 294)"><path d="M0 -7L7 0L0 7L-7 0Z" fill="#6a59d1"></path></g><g transform="translate(608 534)"><path d="M0 -10L10 0L0 10L-10 0Z" fill="#6a59d1"></path></g><g transform="translate(423 221)"><path d="M0 -11L11 0L0 11L-11 0Z" fill="#6a59d1"></path></g><g transform="translate(450 92)"><path d="M0 -19L19 0L0 19L-19 0Z" fill="#6a59d1"></path></g><g transform="translate(606 227)"><path d="M0 -16L16 0L0 16L-16 0Z" fill="#6a59d1"></path></g><g transform="translate(171 2)"><path d="M0 -18L18 0L0 18L-18 0Z" fill="#6a59d1"></path></g></g></svg>