<svg id="visual" viewBox="0 0 960 540" width="960" height="540" xmlns="http://www.w3.org/2000/svg"
    xmlns:xlink="http://www.w3.org/1999/xlink" version="1.1">
    <rect x="0" y="0" width="960" height="540" fill="#ffffff"></rect>
    <path
        d="M0 322L26.7 340.5C53.3 359 106.7 396 160 411.3C213.3 426.7 266.7 420.3 320 418.3C373.3 416.3 426.7 418.7 480 399.8C533.3 381 586.7 341 640 316C693.3 291 746.7 281 800 284.7C853.3 288.3 906.7 305.7 933.3 314.3L960 323L960 541L933.3 541C906.7 541 853.3 541 800 541C746.7 541 693.3 541 640 541C586.7 541 533.3 541 480 541C426.7 541 373.3 541 320 541C266.7 541 213.3 541 160 541C106.7 541 53.3 541 26.7 541L0 541Z"
        fill="#ffffff"></path>
    <path
        d="M0 328L26.7 330.5C53.3 333 106.7 338 160 339.7C213.3 341.3 266.7 339.7 320 347.8C373.3 356 426.7 374 480 377.3C533.3 380.7 586.7 369.3 640 373.3C693.3 377.3 746.7 396.7 800 402.5C853.3 408.3 906.7 400.7 933.3 396.8L960 393L960 541L933.3 541C906.7 541 853.3 541 800 541C746.7 541 693.3 541 640 541C586.7 541 533.3 541 480 541C426.7 541 373.3 541 320 541C266.7 541 213.3 541 160 541C106.7 541 53.3 541 26.7 541L0 541Z"
        fill="#ddd3f4"></path>
    <path
        d="M0 451L26.7 443.7C53.3 436.3 106.7 421.7 160 416C213.3 410.3 266.7 413.7 320 422C373.3 430.3 426.7 443.7 480 437C533.3 430.3 586.7 403.7 640 406.8C693.3 410 746.7 443 800 442C853.3 441 906.7 406 933.3 388.5L960 371L960 541L933.3 541C906.7 541 853.3 541 800 541C746.7 541 693.3 541 640 541C586.7 541 533.3 541 480 541C426.7 541 373.3 541 320 541C266.7 541 213.3 541 160 541C106.7 541 53.3 541 26.7 541L0 541Z"
        fill="#baa9e9"></path>
    <path
        d="M0 418L26.7 426.2C53.3 434.3 106.7 450.7 160 452.7C213.3 454.7 266.7 442.3 320 439.5C373.3 436.7 426.7 443.3 480 445.8C533.3 448.3 586.7 446.7 640 452.5C693.3 458.3 746.7 471.7 800 480.3C853.3 489 906.7 493 933.3 495L960 497L960 541L933.3 541C906.7 541 853.3 541 800 541C746.7 541 693.3 541 640 541C586.7 541 533.3 541 480 541C426.7 541 373.3 541 320 541C266.7 541 213.3 541 160 541C106.7 541 53.3 541 26.7 541L0 541Z"
        fill="#9480dd"></path>
    <path
        d="M0 483L26.7 484.2C53.3 485.3 106.7 487.7 160 496C213.3 504.3 266.7 518.7 320 520.7C373.3 522.7 426.7 512.3 480 504.2C533.3 496 586.7 490 640 488C693.3 486 746.7 488 800 494.5C853.3 501 906.7 512 933.3 517.5L960 523L960 541L933.3 541C906.7 541 853.3 541 800 541C746.7 541 693.3 541 640 541C586.7 541 533.3 541 480 541C426.7 541 373.3 541 320 541C266.7 541 213.3 541 160 541C106.7 541 53.3 541 26.7 541L0 541Z"
        fill="#6a59d1"></path>
</svg>