<svg id="visual" viewBox="0 0 900 600" width="900" height="600" xmlns="http://www.w3.org/2000/svg"
    xmlns:xlink="http://www.w3.org/1999/xlink" version="1.1">
    <rect x="0" y="0" width="900" height="600" fill="#001220"></rect>
    <defs>
        <linearGradient id="grad1_0" x1="33.3%" y1="0%" x2="100%" y2="100%">
            <stop offset="20%" stop-color="#001220" stop-opacity="1"></stop>
            <stop offset="80%" stop-color="#001220" stop-opacity="1"></stop>
        </linearGradient>
    </defs>
    <defs>
        <linearGradient id="grad2_0" x1="0%" y1="0%" x2="66.7%" y2="100%">
            <stop offset="20%" stop-color="#001220" stop-opacity="1"></stop>
            <stop offset="80%" stop-color="#001220" stop-opacity="1"></stop>
        </linearGradient>
    </defs>
    <g transform="translate(900, 0)">
        <path
            d="M0 486.7C-69.8 482.7 -139.7 478.6 -182.5 440.7C-225.4 402.8 -241.3 331.1 -287.8 287.8C-334.3 244.5 -411.4 229.5 -449.7 186.3C-488 143 -487.4 71.5 -486.7 0L0 0Z"
            fill="#6a59d1"></path>
    </g>
    <g transform="translate(0, 600)">
        <path
            d="M0 -486.7C55.3 -455 110.5 -423.3 165.3 -399.1C220.1 -374.9 274.5 -358.2 325.3 -325.3C376.1 -292.3 423.4 -243.2 449.7 -186.3C476 -129.4 481.4 -64.7 486.7 0L0 0Z"
            fill="#6a59d1"></path>
    </g>
</svg>