<svg id="visual" viewBox="0 0 900 600" width="900" height="600" xmlns="http://www.w3.org/2000/svg"
    xmlns:xlink="http://www.w3.org/1999/xlink" version="1.1">
    <rect width="900" height="600" fill="#001829"></rect>
    <g>
        <g transform="translate(471 272)">
            <path d="M0 -77.2L60.4 -48.1L75.3 17.2L33.5 69.6L-33.5 69.6L-75.3 17.2L-60.4 -48.1Z"
                fill="none" stroke="#715DF2" stroke-width="2"></path>
        </g>
        <g transform="translate(789 98)">
            <path d="M0 -34L26.6 -21.2L33.1 7.6L14.8 30.6L-14.8 30.6L-33.1 7.6L-26.6 -21.2Z"
                fill="none" stroke="#715DF2" stroke-width="2"></path>
        </g>
        <g transform="translate(600 566)">
            <path d="M0 -63L49.3 -39.3L61.4 14L27.3 56.8L-27.3 56.8L-61.4 14L-49.3 -39.3Z"
                fill="none" stroke="#715DF2" stroke-width="2"></path>
        </g>
        <g transform="translate(412 449)">
            <path d="M0 -28L21.9 -17.5L27.3 6.2L12.1 25.2L-12.1 25.2L-27.3 6.2L-21.9 -17.5Z"
                stroke="#715DF2" fill="none" stroke-width="2"></path>
        </g>
        <g transform="translate(275 13)">
            <path d="M0 -52L40.7 -32.4L50.7 11.6L22.6 46.9L-22.6 46.9L-50.7 11.6L-40.7 -32.4Z"
                stroke="#715DF2" fill="none" stroke-width="2"></path>
        </g>
        <g transform="translate(21 335)">
            <path d="M0 -58L45.3 -36.2L56.5 12.9L25.2 52.3L-25.2 52.3L-56.5 12.9L-45.3 -36.2Z"
                stroke="#715DF2" fill="none" stroke-width="2"></path>
        </g>
        <g transform="translate(238 301)">
            <path d="M0 -26L20.3 -16.2L25.3 5.8L11.3 23.4L-11.3 23.4L-25.3 5.8L-20.3 -16.2Z"
                stroke="#715DF2" fill="none" stroke-width="2"></path>
        </g>
        <g transform="translate(751 379)">
            <path d="M0 -62L48.5 -38.7L60.4 13.8L26.9 55.9L-26.9 55.9L-60.4 13.8L-48.5 -38.7Z"
                stroke="#715DF2" fill="none" stroke-width="2"></path>
        </g>
        <g transform="translate(500 50)">
            <path d="M0 -33L25.8 -20.6L32.2 7.3L14.3 29.7L-14.3 29.7L-32.2 7.3L-25.8 -20.6Z"
                stroke="#715DF2" fill="none" stroke-width="2"></path>
        </g>
        <g transform="translate(80 80)">
            <path d="M0 -10L7.8 -6.2L9.7 2.2L4.3 9L-4.3 9L-9.7 2.2L-7.8 -6.2Z" stroke="#715DF2"
                fill="none" stroke-width="2"></path>
        </g>
        <g transform="translate(799 555)">
            <path d="M0 -10L7.8 -6.2L9.7 2.2L4.3 9L-4.3 9L-9.7 2.2L-7.8 -6.2Z" stroke="#715DF2"
                fill="none" stroke-width="2"></path>
        </g>
        <g transform="translate(218 572)">
            <path d="M0 -19L14.9 -11.8L18.5 4.2L8.2 17.1L-8.2 17.1L-18.5 4.2L-14.9 -11.8Z"
                stroke="#715DF2" fill="none" stroke-width="2"></path>
        </g>
        <g transform="translate(659 210)">
            <path d="M0 -51L39.9 -31.8L49.7 11.3L22.1 45.9L-22.1 45.9L-49.7 11.3L-39.9 -31.8Z"
                stroke="#715DF2" fill="none" stroke-width="2"></path>
        </g>
        <g transform="translate(886 281)">
            <path d="M0 -67L52.4 -41.8L65.3 14.9L29.1 60.4L-29.1 60.4L-65.3 14.9L-52.4 -41.8Z"
                stroke="#715DF2" fill="none" stroke-width="2"></path>
        </g>
        <g transform="translate(30 596)">
            <path d="M0 -50L39.1 -31.2L48.7 11.1L21.7 45L-21.7 45L-48.7 11.1L-39.1 -31.2Z"
                stroke="#715DF2" fill="none" stroke-width="2"></path>
        </g>
        <g transform="translate(356 159)">
            <path d="M0 -32L25 -20L31.2 7.1L13.9 28.8L-13.9 28.8L-31.2 7.1L-25 -20Z"
                stroke="#715DF2" fill="none" stroke-width="2"></path>
        </g>
        <g transform="translate(566 410)">
            <path d="M0 -16L12.5 -10L15.6 3.6L6.9 14.4L-6.9 14.4L-15.6 3.6L-12.5 -10Z"
                stroke="#715DF2" fill="none" stroke-width="2"></path>
        </g>
        <g transform="translate(132 443)">
            <path d="M0 -29L22.7 -18.1L28.3 6.5L12.6 26.1L-12.6 26.1L-28.3 6.5L-22.7 -18.1Z"
                stroke="#715DF2" fill="none" stroke-width="2"></path>
        </g>
    </g>
</svg>